%TF.GenerationSoftware,KiCad,Pcbnew,9.0.2*%
%TF.CreationDate,2025-06-01T20:35:32+02:00*%
%TF.ProjectId,IBIS,49424953-2e6b-4696-9361-645f70636258,rev?*%
%TF.SameCoordinates,Original*%
%TF.FileFunction,Copper,L1,Top*%
%TF.FilePolarity,Positive*%
%FSLAX46Y46*%
G04 Gerber Fmt 4.6, Leading zero omitted, Abs format (unit mm)*
G04 Created by KiCad (PCBNEW 9.0.2) date 2025-06-01 20:35:32*
%MOMM*%
%LPD*%
G01*
G04 APERTURE LIST*
G04 Aperture macros list*
%AMRoundRect*
0 Rectangle with rounded corners*
0 $1 Rounding radius*
0 $2 $3 $4 $5 $6 $7 $8 $9 X,Y pos of 4 corners*
0 Add a 4 corners polygon primitive as box body*
4,1,4,$2,$3,$4,$5,$6,$7,$8,$9,$2,$3,0*
0 Add four circle primitives for the rounded corners*
1,1,$1+$1,$2,$3*
1,1,$1+$1,$4,$5*
1,1,$1+$1,$6,$7*
1,1,$1+$1,$8,$9*
0 Add four rect primitives between the rounded corners*
20,1,$1+$1,$2,$3,$4,$5,0*
20,1,$1+$1,$4,$5,$6,$7,0*
20,1,$1+$1,$6,$7,$8,$9,0*
20,1,$1+$1,$8,$9,$2,$3,0*%
G04 Aperture macros list end*
%TA.AperFunction,ComponentPad*%
%ADD10R,1.050000X1.500000*%
%TD*%
%TA.AperFunction,ComponentPad*%
%ADD11O,1.050000X1.500000*%
%TD*%
%TA.AperFunction,ComponentPad*%
%ADD12C,1.600000*%
%TD*%
%TA.AperFunction,ComponentPad*%
%ADD13C,2.000000*%
%TD*%
%TA.AperFunction,SMDPad,CuDef*%
%ADD14R,0.500000X2.500000*%
%TD*%
%TA.AperFunction,SMDPad,CuDef*%
%ADD15R,2.000000X2.500000*%
%TD*%
%TA.AperFunction,ComponentPad*%
%ADD16RoundRect,0.250000X-0.550000X0.550000X-0.550000X-0.550000X0.550000X-0.550000X0.550000X0.550000X0*%
%TD*%
%TA.AperFunction,ComponentPad*%
%ADD17RoundRect,0.250000X-0.650000X-1.350000X0.650000X-1.350000X0.650000X1.350000X-0.650000X1.350000X0*%
%TD*%
%TA.AperFunction,ComponentPad*%
%ADD18O,1.800000X3.200000*%
%TD*%
%TA.AperFunction,ComponentPad*%
%ADD19RoundRect,0.250000X-0.550000X-0.550000X0.550000X-0.550000X0.550000X0.550000X-0.550000X0.550000X0*%
%TD*%
%TA.AperFunction,ComponentPad*%
%ADD20C,1.500000*%
%TD*%
%TA.AperFunction,SMDPad,CuDef*%
%ADD21RoundRect,0.150000X0.150000X-0.825000X0.150000X0.825000X-0.150000X0.825000X-0.150000X-0.825000X0*%
%TD*%
%TA.AperFunction,ComponentPad*%
%ADD22RoundRect,0.249999X-0.850001X-0.850001X0.850001X-0.850001X0.850001X0.850001X-0.850001X0.850001X0*%
%TD*%
%TA.AperFunction,ComponentPad*%
%ADD23C,2.200000*%
%TD*%
%TA.AperFunction,ViaPad*%
%ADD24C,0.600000*%
%TD*%
%TA.AperFunction,Conductor*%
%ADD25C,0.200000*%
%TD*%
G04 APERTURE END LIST*
D10*
%TO.P,T2,1,C*%
%TO.N,Net-(T2-C)*%
X90460000Y-85000000D03*
D11*
%TO.P,T2,2,B*%
%TO.N,Net-(D2-A)*%
X91730000Y-85000000D03*
%TO.P,T2,3,E*%
%TO.N,Net-(D2-K)*%
X93000000Y-85000000D03*
%TD*%
D12*
%TO.P,R1,1*%
%TO.N,Net-(U1-TXD)*%
X54000000Y-82660000D03*
%TO.P,R1,2*%
%TO.N,Net-(T0-B)*%
X54000000Y-72500000D03*
%TD*%
D13*
%TO.P,C3,1*%
%TO.N,Net-(U1-V3)*%
X73000000Y-63500000D03*
%TO.P,C3,2*%
%TO.N,GND*%
X78000000Y-63500000D03*
%TD*%
%TO.P,C2,1*%
%TO.N,Net-(U1-XO)*%
X73140000Y-54500000D03*
%TO.P,C2,2*%
%TO.N,GND*%
X78140000Y-54500000D03*
%TD*%
D14*
%TO.P,J1,1,VBUS*%
%TO.N,VCC*%
X76400000Y-96375000D03*
%TO.P,J1,2,D-*%
%TO.N,Net-(J1-D-)*%
X77200000Y-96375000D03*
%TO.P,J1,3,D+*%
%TO.N,Net-(J1-D+)*%
X78000000Y-96375000D03*
%TO.P,J1,4,ID*%
%TO.N,unconnected-(J1-ID-Pad4)*%
X78800000Y-96375000D03*
%TO.P,J1,5,GND*%
%TO.N,GND*%
X79600000Y-96375000D03*
D15*
%TO.P,J1,6,Shield*%
X73600000Y-96375000D03*
X73600000Y-101875000D03*
X82400000Y-96375000D03*
X82400000Y-101875000D03*
%TD*%
D12*
%TO.P,R4,1*%
%TO.N,GND*%
X58340000Y-64000000D03*
%TO.P,R4,2*%
%TO.N,Net-(D1-K)*%
X68500000Y-64000000D03*
%TD*%
D13*
%TO.P,C4,1*%
%TO.N,VCC*%
X73140000Y-72500000D03*
%TO.P,C4,2*%
%TO.N,GND*%
X78140000Y-72500000D03*
%TD*%
D12*
%TO.P,R8,1*%
%TO.N,Net-(D2-A)*%
X58340000Y-88000000D03*
%TO.P,R8,2*%
%TO.N,Net-(J2-Pin_2)*%
X68500000Y-88000000D03*
%TD*%
%TO.P,R3,1*%
%TO.N,/DTR*%
X58340000Y-58000000D03*
%TO.P,R3,2*%
%TO.N,Net-(R3-Pad2)*%
X68500000Y-58000000D03*
%TD*%
D10*
%TO.P,T0,1,C*%
%TO.N,GND*%
X82460000Y-73000000D03*
D11*
%TO.P,T0,2,B*%
%TO.N,Net-(T0-B)*%
X83730000Y-73000000D03*
%TO.P,T0,3,E*%
%TO.N,Net-(J2-Pin_5)*%
X85000000Y-73000000D03*
%TD*%
D16*
%TO.P,D1,1,K*%
%TO.N,Net-(D1-K)*%
X54000000Y-85340000D03*
D12*
%TO.P,D1,2,A*%
%TO.N,GND*%
X54000000Y-95500000D03*
%TD*%
%TO.P,R5,1*%
%TO.N,Net-(J2-Pin_5)*%
X58340000Y-70000000D03*
%TO.P,R5,2*%
%TO.N,Net-(J2-Pin_1)*%
X68500000Y-70000000D03*
%TD*%
D17*
%TO.P,J2,1,Pin_1*%
%TO.N,Net-(J2-Pin_1)*%
X83890000Y-45500000D03*
X83890000Y-50500000D03*
D18*
%TO.P,J2,2,Pin_2*%
%TO.N,Net-(J2-Pin_2)*%
X86430000Y-45500000D03*
X86430000Y-50500000D03*
%TO.P,J2,3,Pin_3*%
%TO.N,GND*%
X88970000Y-45500000D03*
X88970000Y-50500000D03*
%TO.P,J2,4,Pin_4*%
X91510000Y-45500000D03*
X91510000Y-50500000D03*
%TO.P,J2,5,Pin_5*%
%TO.N,Net-(J2-Pin_5)*%
X94050000Y-45500000D03*
X94050000Y-50500000D03*
%TO.P,J2,6,Pin_6*%
%TO.N,GND*%
X96590000Y-45500000D03*
X96590000Y-50500000D03*
%TD*%
D19*
%TO.P,D2,1,K*%
%TO.N,Net-(D2-K)*%
X58500000Y-52000000D03*
D12*
%TO.P,D2,2,A*%
%TO.N,Net-(D2-A)*%
X68660000Y-52000000D03*
%TD*%
D20*
%TO.P,X1,1,1*%
%TO.N,Net-(U1-XI)*%
X91730000Y-98500000D03*
%TO.P,X1,2,2*%
%TO.N,Net-(U1-XO)*%
X91730000Y-93620000D03*
%TD*%
D12*
%TO.P,R6,1*%
%TO.N,Net-(R3-Pad2)*%
X58340000Y-76000000D03*
%TO.P,R6,2*%
%TO.N,Net-(T2-C)*%
X68500000Y-76000000D03*
%TD*%
D21*
%TO.P,U1,1,GND*%
%TO.N,GND*%
X73380000Y-84450000D03*
%TO.P,U1,2,TXD*%
%TO.N,Net-(U1-TXD)*%
X74650000Y-84450000D03*
%TO.P,U1,3,RXD*%
%TO.N,/RXD*%
X75920000Y-84450000D03*
%TO.P,U1,4,V3*%
%TO.N,Net-(U1-V3)*%
X77190000Y-84450000D03*
%TO.P,U1,5,UD+*%
%TO.N,Net-(J1-D+)*%
X78460000Y-84450000D03*
%TO.P,U1,6,UD-*%
%TO.N,Net-(J1-D-)*%
X79730000Y-84450000D03*
%TO.P,U1,7,XI*%
%TO.N,Net-(U1-XI)*%
X81000000Y-84450000D03*
%TO.P,U1,8,XO*%
%TO.N,Net-(U1-XO)*%
X82270000Y-84450000D03*
%TO.P,U1,9,~{CTS}*%
%TO.N,unconnected-(U1-~{CTS}-Pad9)*%
X82270000Y-79500000D03*
%TO.P,U1,10,~{DSR}*%
%TO.N,unconnected-(U1-~{DSR}-Pad10)*%
X81000000Y-79500000D03*
%TO.P,U1,11,~{RI}*%
%TO.N,unconnected-(U1-~{RI}-Pad11)*%
X79730000Y-79500000D03*
%TO.P,U1,12,~{DCD}*%
%TO.N,unconnected-(U1-~{DCD}-Pad12)*%
X78460000Y-79500000D03*
%TO.P,U1,13,~{DTR}*%
%TO.N,/DTR*%
X77190000Y-79500000D03*
%TO.P,U1,14,~{RTS}*%
%TO.N,unconnected-(U1-~{RTS}-Pad14)*%
X75920000Y-79500000D03*
%TO.P,U1,15,R232*%
%TO.N,VCC*%
X74650000Y-79500000D03*
%TO.P,U1,16,VCC*%
X73380000Y-79500000D03*
%TD*%
D22*
%TO.P,D3,1,K*%
%TO.N,Net-(D2-K)*%
X58340000Y-46000000D03*
D23*
%TO.P,D3,2,A*%
%TO.N,GND*%
X68500000Y-46000000D03*
%TD*%
D10*
%TO.P,T1,1,C*%
%TO.N,GND*%
X90460000Y-76500000D03*
D11*
%TO.P,T1,2,B*%
%TO.N,Net-(D1-K)*%
X91730000Y-76500000D03*
%TO.P,T1,3,E*%
%TO.N,Net-(J2-Pin_1)*%
X93000000Y-76500000D03*
%TD*%
D12*
%TO.P,R9,1*%
%TO.N,Net-(D2-K)*%
X58340000Y-94000000D03*
%TO.P,R9,2*%
%TO.N,Net-(J2-Pin_5)*%
X68500000Y-94000000D03*
%TD*%
%TO.P,R7,1*%
%TO.N,Net-(D2-A)*%
X58340000Y-82000000D03*
%TO.P,R7,2*%
%TO.N,Net-(D2-K)*%
X68500000Y-82000000D03*
%TD*%
D13*
%TO.P,C1,1*%
%TO.N,Net-(U1-XI)*%
X73140000Y-45500000D03*
%TO.P,C1,2*%
%TO.N,GND*%
X78140000Y-45500000D03*
%TD*%
D12*
%TO.P,R2,1*%
%TO.N,/RXD*%
X54000000Y-69160000D03*
%TO.P,R2,2*%
%TO.N,Net-(T2-C)*%
X54000000Y-59000000D03*
%TD*%
%TO.P,R10,1*%
%TO.N,Net-(J2-Pin_2)*%
X58340000Y-100000000D03*
%TO.P,R10,2*%
%TO.N,Net-(J2-Pin_5)*%
X68500000Y-100000000D03*
%TD*%
D24*
%TO.N,Net-(D2-K)*%
X70201000Y-76000000D03*
X69500000Y-73000000D03*
X70201000Y-78500000D03*
X65977510Y-65673960D03*
X65000000Y-64000000D03*
X89570000Y-80199997D03*
%TO.N,Net-(D1-K)*%
X89570000Y-72000000D03*
X61344265Y-66155735D03*
X59500000Y-66500000D03*
%TO.N,Net-(J2-Pin_1)*%
X91000000Y-53000000D03*
%TO.N,Net-(T2-C)*%
X68500000Y-78500000D03*
X89570000Y-82000000D03*
X58000000Y-67100000D03*
%TO.N,Net-(D2-A)*%
X70900000Y-75500000D03*
X70201000Y-80000000D03*
X89570000Y-81000000D03*
%TO.N,Net-(J1-D+)*%
X78000000Y-99000000D03*
X78500000Y-86000000D03*
%TO.N,VCC*%
X72500000Y-99500000D03*
X73500000Y-77500000D03*
%TO.N,Net-(U1-XI)*%
X81000000Y-86000000D03*
X87000000Y-94000000D03*
%TO.N,Net-(U1-XO)*%
X82304000Y-82500000D03*
X90500000Y-90000000D03*
%TO.N,Net-(U1-TXD)*%
X71900000Y-90500000D03*
X74338235Y-89161765D03*
X74600000Y-86500000D03*
X69000000Y-85500000D03*
X70600000Y-85500000D03*
%TO.N,Net-(U1-V3)*%
X76500000Y-72000000D03*
X76500000Y-75000000D03*
X75500000Y-65000000D03*
X76674265Y-65674265D03*
%TO.N,Net-(J1-D-)*%
X79500000Y-87500000D03*
X77500000Y-100000000D03*
%TO.N,Net-(J2-Pin_2)*%
X78500000Y-82500000D03*
X85000000Y-77000000D03*
X83504000Y-78000000D03*
X79000000Y-80900000D03*
X73500000Y-88500000D03*
X86500000Y-77500000D03*
%TO.N,Net-(J2-Pin_5)*%
X67500000Y-91500000D03*
X68500000Y-97500000D03*
X55863080Y-85363080D03*
%TO.N,/RXD*%
X57500000Y-72000000D03*
X76000000Y-86500000D03*
X66500000Y-85100000D03*
X67674265Y-89674265D03*
X73100000Y-91500000D03*
%TO.N,/DTR*%
X74547870Y-71982401D03*
X72500000Y-69000000D03*
X76000000Y-73500000D03*
X70000000Y-66500000D03*
%TO.N,Net-(R3-Pad2)*%
X57500000Y-73000000D03*
%TD*%
D25*
%TO.N,Net-(D2-K)*%
X93000000Y-83580057D02*
X89619940Y-80199997D01*
X70201000Y-73701000D02*
X70201000Y-76000000D01*
X58340000Y-46000000D02*
X58340000Y-51840000D01*
X65977510Y-64977510D02*
X65977510Y-65673960D01*
X89619940Y-80199997D02*
X89570000Y-80199997D01*
X58340000Y-51840000D02*
X58500000Y-52000000D01*
X69500000Y-73000000D02*
X70201000Y-73701000D01*
X70201000Y-76000000D02*
X70201000Y-78500000D01*
X93000000Y-85000000D02*
X93000000Y-83580057D01*
X65000000Y-64000000D02*
X65977510Y-64977510D01*
%TO.N,GND*%
X73125000Y-96375000D02*
X71000000Y-98500000D01*
X71500000Y-85475000D02*
X71500000Y-49000000D01*
X69601000Y-83576000D02*
X69601000Y-75261000D01*
X80525000Y-94500000D02*
X69557050Y-94500000D01*
X82904000Y-73444000D02*
X82460000Y-73000000D01*
X85826000Y-92949000D02*
X85826000Y-55222160D01*
X81601000Y-57961000D02*
X78140000Y-54500000D01*
X73600000Y-96375000D02*
X73125000Y-96375000D01*
X82400000Y-96375000D02*
X75251000Y-89226000D01*
X82904000Y-95871000D02*
X82904000Y-73444000D01*
X82400000Y-96375000D02*
X73380000Y-87355000D01*
X88970000Y-50500000D02*
X90871000Y-48599000D01*
X82400000Y-96375000D02*
X88970000Y-89805000D01*
X71000000Y-99275000D02*
X73600000Y-101875000D01*
X75251000Y-89226000D02*
X75251000Y-66249000D01*
X88970000Y-50500000D02*
X91510000Y-50500000D01*
X73380000Y-87355000D02*
X73380000Y-84450000D01*
X82400000Y-96375000D02*
X82871000Y-95904000D01*
X96590000Y-45500000D02*
X96590000Y-46698000D01*
X88970000Y-89805000D02*
X88970000Y-50500000D01*
X96590000Y-46698000D02*
X94689000Y-48599000D01*
X82871000Y-95904000D02*
X82871000Y-84089000D01*
X82400000Y-96375000D02*
X71500000Y-85475000D01*
X82871000Y-84089000D02*
X90460000Y-76500000D01*
X77791000Y-72849000D02*
X78140000Y-72500000D01*
X85826000Y-55222160D02*
X78140000Y-47536160D01*
X77791000Y-91766000D02*
X77791000Y-72849000D01*
X79351000Y-96624000D02*
X79600000Y-96375000D01*
X69601000Y-75261000D02*
X58340000Y-64000000D01*
X68557050Y-95500000D02*
X54000000Y-95500000D01*
X82400000Y-96375000D02*
X85826000Y-92949000D01*
X82400000Y-101875000D02*
X82400000Y-96375000D01*
X82400000Y-96375000D02*
X79600000Y-96375000D01*
X82400000Y-96375000D02*
X69601000Y-83576000D01*
X82400000Y-96375000D02*
X82904000Y-95871000D01*
X91510000Y-50500000D02*
X91510000Y-45500000D01*
X71500000Y-49000000D02*
X68500000Y-46000000D01*
X78140000Y-47536160D02*
X78140000Y-45500000D01*
X69557050Y-94500000D02*
X68557050Y-95500000D01*
X71000000Y-98500000D02*
X71000000Y-99275000D01*
X82400000Y-96375000D02*
X80525000Y-94500000D01*
X90871000Y-48599000D02*
X94689000Y-48599000D01*
X88970000Y-50500000D02*
X88970000Y-45500000D01*
X82400000Y-96375000D02*
X77791000Y-91766000D01*
X75251000Y-66249000D02*
X78000000Y-63500000D01*
X94689000Y-48599000D02*
X96590000Y-50500000D01*
X73600000Y-101875000D02*
X82400000Y-101875000D01*
X82400000Y-96375000D02*
X81601000Y-95576000D01*
X81601000Y-95576000D02*
X81601000Y-57961000D01*
%TO.N,Net-(D1-K)*%
X56000000Y-83340000D02*
X54000000Y-85340000D01*
X59500000Y-66500000D02*
X57500000Y-66500000D01*
X91730000Y-74160000D02*
X89570000Y-72000000D01*
X56000000Y-68000000D02*
X56000000Y-83340000D01*
X61203550Y-66296450D02*
X61344265Y-66155735D01*
X57500000Y-66500000D02*
X56000000Y-68000000D01*
X91730000Y-76500000D02*
X91730000Y-74160000D01*
X66203550Y-66296450D02*
X61203550Y-66296450D01*
X68500000Y-64000000D02*
X66203550Y-66296450D01*
%TO.N,Net-(J2-Pin_1)*%
X93000000Y-76500000D02*
X93000000Y-55000000D01*
X83890000Y-50500000D02*
X83890000Y-45500000D01*
X93000000Y-55000000D02*
X91000000Y-53000000D01*
%TO.N,Net-(T2-C)*%
X68500000Y-76000000D02*
X66900000Y-76000000D01*
X90460000Y-85000000D02*
X90460000Y-82890000D01*
X66900000Y-76000000D02*
X58000000Y-67100000D01*
X68500000Y-76000000D02*
X68500000Y-78500000D01*
X90460000Y-82890000D02*
X89570000Y-82000000D01*
%TO.N,Net-(D2-A)*%
X70900000Y-75500000D02*
X70900000Y-79100000D01*
X70900000Y-79100000D02*
X70500000Y-79500000D01*
X70900000Y-75500000D02*
X70900000Y-54240000D01*
X70900000Y-54240000D02*
X68660000Y-52000000D01*
X91730000Y-83160000D02*
X89570000Y-81000000D01*
X70201000Y-79799000D02*
X70201000Y-80000000D01*
X91730000Y-85000000D02*
X91730000Y-83160000D01*
X58340000Y-88000000D02*
X58340000Y-82000000D01*
X70500000Y-79500000D02*
X70201000Y-79799000D01*
%TO.N,Net-(J1-D+)*%
X78460000Y-84450000D02*
X78460000Y-85960000D01*
X78000000Y-96375000D02*
X78000000Y-99000000D01*
X78460000Y-85960000D02*
X78500000Y-86000000D01*
%TO.N,VCC*%
X76400000Y-96375000D02*
X73275000Y-99500000D01*
X73380000Y-79500000D02*
X74650000Y-79500000D01*
X73275000Y-99500000D02*
X72500000Y-99500000D01*
X73380000Y-79500000D02*
X73380000Y-77620000D01*
X73380000Y-77620000D02*
X73500000Y-77500000D01*
X73500000Y-77500000D02*
X73140000Y-77140000D01*
X73140000Y-77140000D02*
X73140000Y-72500000D01*
%TO.N,Net-(U1-XI)*%
X91730000Y-98500000D02*
X87230000Y-94000000D01*
X81000000Y-84450000D02*
X81000000Y-86000000D01*
X80399000Y-83849000D02*
X80399000Y-58598892D01*
X87230000Y-94000000D02*
X87000000Y-94000000D01*
X80399000Y-58598892D02*
X73140000Y-51339892D01*
X73140000Y-51339892D02*
X73140000Y-45500000D01*
X81000000Y-84450000D02*
X80399000Y-83849000D01*
%TO.N,Net-(U1-XO)*%
X82270000Y-84450000D02*
X82270000Y-82534000D01*
X91730000Y-93620000D02*
X91730000Y-91230000D01*
X91730000Y-91230000D02*
X90500000Y-90000000D01*
X82270000Y-82534000D02*
X82304000Y-82500000D01*
%TO.N,Net-(U1-TXD)*%
X71900000Y-90500000D02*
X73000000Y-90500000D01*
X74600000Y-86500000D02*
X74650000Y-86450000D01*
X69000000Y-85500000D02*
X70600000Y-85500000D01*
X74650000Y-86450000D02*
X74650000Y-84450000D01*
X73000000Y-90500000D02*
X74338235Y-89161765D01*
%TO.N,Net-(U1-V3)*%
X75500000Y-65000000D02*
X75000000Y-64500000D01*
X75000000Y-64500000D02*
X74000000Y-64500000D01*
X74000000Y-64500000D02*
X73000000Y-63500000D01*
X76500000Y-70500000D02*
X76500000Y-65848530D01*
X76521000Y-75021000D02*
X76500000Y-75000000D01*
X76500000Y-72000000D02*
X76500000Y-70500000D01*
X76521000Y-83781000D02*
X76521000Y-75021000D01*
X76500000Y-65848530D02*
X76674265Y-65674265D01*
X77190000Y-84450000D02*
X76521000Y-83781000D01*
%TO.N,Net-(J1-D-)*%
X79730000Y-84450000D02*
X79500000Y-84680000D01*
X77200000Y-99700000D02*
X77500000Y-100000000D01*
X77200000Y-96375000D02*
X77200000Y-99700000D01*
X79500000Y-84680000D02*
X79500000Y-87500000D01*
%TO.N,Net-(J2-Pin_2)*%
X73500000Y-88500000D02*
X73000000Y-88000000D01*
X86430000Y-77430000D02*
X86500000Y-77500000D01*
X55500000Y-100000000D02*
X52000000Y-96500000D01*
X56500000Y-93500000D02*
X58500000Y-91500000D01*
X84504000Y-77000000D02*
X83504000Y-78000000D01*
X58340000Y-100000000D02*
X55500000Y-100000000D01*
X79000000Y-80900000D02*
X79000000Y-82500000D01*
X73000000Y-88000000D02*
X68500000Y-88000000D01*
X79000000Y-82500000D02*
X78500000Y-82500000D01*
X66500000Y-91500000D02*
X66500000Y-90000000D01*
X85000000Y-77000000D02*
X84504000Y-77000000D01*
X52000000Y-96500000D02*
X52000000Y-95942950D01*
X86430000Y-50500000D02*
X86430000Y-77430000D01*
X54442950Y-93500000D02*
X56500000Y-93500000D01*
X52000000Y-95942950D02*
X54442950Y-93500000D01*
X58500000Y-91500000D02*
X66500000Y-91500000D01*
X66500000Y-90000000D02*
X68500000Y-88000000D01*
X86430000Y-45500000D02*
X86430000Y-50500000D01*
%TO.N,Net-(J2-Pin_5)*%
X53214840Y-84239000D02*
X52899000Y-84554840D01*
X68500000Y-94000000D02*
X68500000Y-92500000D01*
X94050000Y-50500000D02*
X95951000Y-52401000D01*
X68500000Y-92500000D02*
X67500000Y-91500000D01*
X54785160Y-86441000D02*
X55863080Y-85363080D01*
X56401000Y-71939000D02*
X58340000Y-70000000D01*
X76839000Y-44961108D02*
X76839000Y-46802260D01*
X97087470Y-43599000D02*
X78201108Y-43599000D01*
X76839000Y-46802260D02*
X85000000Y-54963260D01*
X55863080Y-85363080D02*
X56401000Y-84825160D01*
X68919686Y-43599000D02*
X55599000Y-56919686D01*
X97087470Y-43599000D02*
X68919686Y-43599000D01*
X52899000Y-84554840D02*
X52899000Y-86125160D01*
X97087470Y-52401000D02*
X97791000Y-51697470D01*
X97791000Y-44302530D02*
X97087470Y-43599000D01*
X55599000Y-83173900D02*
X54533900Y-84239000D01*
X54533900Y-84239000D02*
X53214840Y-84239000D01*
X85000000Y-54963260D02*
X85000000Y-73000000D01*
X53214840Y-86441000D02*
X54785160Y-86441000D01*
X55599000Y-56919686D02*
X55599000Y-83173900D01*
X68500000Y-100000000D02*
X68500000Y-97500000D01*
X56401000Y-84825160D02*
X56401000Y-71939000D01*
X52899000Y-86125160D02*
X53214840Y-86441000D01*
X78201108Y-43599000D02*
X76839000Y-44961108D01*
X97791000Y-51697470D02*
X97791000Y-44302530D01*
X95951000Y-52401000D02*
X97087470Y-52401000D01*
%TO.N,/RXD*%
X69500000Y-91500000D02*
X67674265Y-89674265D01*
X75920000Y-86420000D02*
X76000000Y-86500000D01*
X73100000Y-91500000D02*
X69500000Y-91500000D01*
X75920000Y-84450000D02*
X75920000Y-86420000D01*
X66500000Y-85100000D02*
X66500000Y-81000000D01*
X66500000Y-81000000D02*
X57500000Y-72000000D01*
%TO.N,/DTR*%
X74547870Y-71982401D02*
X74547870Y-71047870D01*
X70000000Y-66500000D02*
X70000000Y-63942950D01*
X70000000Y-63942950D02*
X64057050Y-58000000D01*
X77190000Y-74690000D02*
X76000000Y-73500000D01*
X64057050Y-58000000D02*
X58340000Y-58000000D01*
X74547870Y-71047870D02*
X72500000Y-69000000D01*
X77190000Y-79500000D02*
X77190000Y-74690000D01*
%TO.N,Net-(R3-Pad2)*%
X58340000Y-73840000D02*
X57500000Y-73000000D01*
X58340000Y-76000000D02*
X58340000Y-73840000D01*
%TD*%
M02*
