%TF.GenerationSoftware,KiCad,Pcbnew,9.0.2*%
%TF.CreationDate,2025-06-01T20:35:33+02:00*%
%TF.ProjectId,IBIS,49424953-2e6b-4696-9361-645f70636258,rev?*%
%TF.SameCoordinates,Original*%
%TF.FileFunction,Soldermask,Bot*%
%TF.FilePolarity,Negative*%
%FSLAX46Y46*%
G04 Gerber Fmt 4.6, Leading zero omitted, Abs format (unit mm)*
G04 Created by KiCad (PCBNEW 9.0.2) date 2025-06-01 20:35:33*
%MOMM*%
%LPD*%
G01*
G04 APERTURE LIST*
G04 Aperture macros list*
%AMRoundRect*
0 Rectangle with rounded corners*
0 $1 Rounding radius*
0 $2 $3 $4 $5 $6 $7 $8 $9 X,Y pos of 4 corners*
0 Add a 4 corners polygon primitive as box body*
4,1,4,$2,$3,$4,$5,$6,$7,$8,$9,$2,$3,0*
0 Add four circle primitives for the rounded corners*
1,1,$1+$1,$2,$3*
1,1,$1+$1,$4,$5*
1,1,$1+$1,$6,$7*
1,1,$1+$1,$8,$9*
0 Add four rect primitives between the rounded corners*
20,1,$1+$1,$2,$3,$4,$5,0*
20,1,$1+$1,$4,$5,$6,$7,0*
20,1,$1+$1,$6,$7,$8,$9,0*
20,1,$1+$1,$8,$9,$2,$3,0*%
G04 Aperture macros list end*
%ADD10R,1.050000X1.500000*%
%ADD11O,1.050000X1.500000*%
%ADD12C,1.600000*%
%ADD13C,2.000000*%
%ADD14C,0.900000*%
%ADD15RoundRect,0.250000X-0.550000X0.550000X-0.550000X-0.550000X0.550000X-0.550000X0.550000X0.550000X0*%
%ADD16RoundRect,0.250000X-0.650000X-1.350000X0.650000X-1.350000X0.650000X1.350000X-0.650000X1.350000X0*%
%ADD17O,1.800000X3.200000*%
%ADD18RoundRect,0.250000X-0.550000X-0.550000X0.550000X-0.550000X0.550000X0.550000X-0.550000X0.550000X0*%
%ADD19C,1.500000*%
%ADD20RoundRect,0.249999X-0.850001X-0.850001X0.850001X-0.850001X0.850001X0.850001X-0.850001X0.850001X0*%
%ADD21C,2.200000*%
G04 APERTURE END LIST*
D10*
%TO.C,T2*%
X90460000Y-85000000D03*
D11*
X91730000Y-85000000D03*
X93000000Y-85000000D03*
%TD*%
D12*
%TO.C,R1*%
X54000000Y-82660000D03*
X54000000Y-72500000D03*
%TD*%
D13*
%TO.C,C3*%
X73000000Y-63500000D03*
X78000000Y-63500000D03*
%TD*%
%TO.C,C2*%
X73140000Y-54500000D03*
X78140000Y-54500000D03*
%TD*%
D14*
%TO.C,J1*%
X75800000Y-98975000D03*
X80200000Y-98975000D03*
%TD*%
D12*
%TO.C,R4*%
X58340000Y-64000000D03*
X68500000Y-64000000D03*
%TD*%
D13*
%TO.C,C4*%
X73140000Y-72500000D03*
X78140000Y-72500000D03*
%TD*%
D12*
%TO.C,R8*%
X58340000Y-88000000D03*
X68500000Y-88000000D03*
%TD*%
%TO.C,R3*%
X58340000Y-58000000D03*
X68500000Y-58000000D03*
%TD*%
D10*
%TO.C,T0*%
X82460000Y-73000000D03*
D11*
X83730000Y-73000000D03*
X85000000Y-73000000D03*
%TD*%
D15*
%TO.C,D1*%
X54000000Y-85340000D03*
D12*
X54000000Y-95500000D03*
%TD*%
%TO.C,R5*%
X58340000Y-70000000D03*
X68500000Y-70000000D03*
%TD*%
D16*
%TO.C,J2*%
X83890000Y-45500000D03*
X83890000Y-50500000D03*
D17*
X86430000Y-45500000D03*
X86430000Y-50500000D03*
X88970000Y-45500000D03*
X88970000Y-50500000D03*
X91510000Y-45500000D03*
X91510000Y-50500000D03*
X94050000Y-45500000D03*
X94050000Y-50500000D03*
X96590000Y-45500000D03*
X96590000Y-50500000D03*
%TD*%
D18*
%TO.C,D2*%
X58500000Y-52000000D03*
D12*
X68660000Y-52000000D03*
%TD*%
D19*
%TO.C,X1*%
X91730000Y-98500000D03*
X91730000Y-93620000D03*
%TD*%
D12*
%TO.C,R6*%
X58340000Y-76000000D03*
X68500000Y-76000000D03*
%TD*%
D20*
%TO.C,D3*%
X58340000Y-46000000D03*
D21*
X68500000Y-46000000D03*
%TD*%
D10*
%TO.C,T1*%
X90460000Y-76500000D03*
D11*
X91730000Y-76500000D03*
X93000000Y-76500000D03*
%TD*%
D12*
%TO.C,R9*%
X58340000Y-94000000D03*
X68500000Y-94000000D03*
%TD*%
%TO.C,R7*%
X58340000Y-82000000D03*
X68500000Y-82000000D03*
%TD*%
D13*
%TO.C,C1*%
X73140000Y-45500000D03*
X78140000Y-45500000D03*
%TD*%
D12*
%TO.C,R2*%
X54000000Y-69160000D03*
X54000000Y-59000000D03*
%TD*%
%TO.C,R10*%
X58340000Y-100000000D03*
X68500000Y-100000000D03*
%TD*%
M02*
