M48
; DRILL file {KiCad 9.0.2} date 2025-06-01T20:35:41+0200
; FORMAT={-:-/ absolute / metric / decimal}
; #@! TF.CreationDate,2025-06-01T20:35:41+02:00
; #@! TF.GenerationSoftware,Kicad,Pcbnew,9.0.2
; #@! TF.FileFunction,Plated,1,2,PTH
FMAT,2
METRIC
; #@! TA.AperFunction,Plated,PTH,ViaDrill
T1C0.300
; #@! TA.AperFunction,Plated,PTH,ComponentDrill
T2C0.750
; #@! TA.AperFunction,Plated,PTH,ComponentDrill
T3C0.800
; #@! TA.AperFunction,Plated,PTH,ComponentDrill
T4C1.000
; #@! TA.AperFunction,Plated,PTH,ComponentDrill
T5C1.100
%
G90
G05
T1
X55.863Y-85.363
X57.5Y-72.0
X57.5Y-73.0
X58.0Y-67.1
X59.5Y-66.5
X61.344Y-66.156
X65.0Y-64.0
X65.978Y-65.674
X66.5Y-85.1
X67.5Y-91.5
X67.674Y-89.674
X68.5Y-78.5
X68.5Y-97.5
X69.0Y-85.5
X69.5Y-73.0
X70.0Y-66.5
X70.201Y-76.0
X70.201Y-78.5
X70.201Y-80.0
X70.6Y-85.5
X70.9Y-75.5
X71.9Y-90.5
X72.5Y-69.0
X72.5Y-99.5
X73.1Y-91.5
X73.5Y-77.5
X73.5Y-88.5
X74.338Y-89.162
X74.548Y-71.982
X74.6Y-86.5
X75.5Y-65.0
X76.0Y-73.5
X76.0Y-86.5
X76.5Y-72.0
X76.5Y-75.0
X76.674Y-65.674
X77.5Y-100.0
X78.0Y-99.0
X78.5Y-82.5
X78.5Y-86.0
X79.0Y-80.9
X79.5Y-87.5
X81.0Y-86.0
X82.304Y-82.5
X83.504Y-78.0
X85.0Y-77.0
X86.5Y-77.5
X87.0Y-94.0
X89.57Y-72.0
X89.57Y-80.2
X89.57Y-81.0
X89.57Y-82.0
X90.5Y-90.0
X91.0Y-53.0
T2
X82.46Y-73.0
X83.73Y-73.0
X85.0Y-73.0
X90.46Y-76.5
X90.46Y-85.0
X91.73Y-76.5
X91.73Y-85.0
X93.0Y-76.5
X93.0Y-85.0
T3
X54.0Y-59.0
X54.0Y-69.16
X54.0Y-72.5
X54.0Y-82.66
X54.0Y-85.34
X54.0Y-95.5
X58.34Y-58.0
X58.34Y-64.0
X58.34Y-70.0
X58.34Y-76.0
X58.34Y-82.0
X58.34Y-88.0
X58.34Y-94.0
X58.34Y-100.0
X58.5Y-52.0
X68.5Y-58.0
X68.5Y-64.0
X68.5Y-70.0
X68.5Y-76.0
X68.5Y-82.0
X68.5Y-88.0
X68.5Y-94.0
X68.5Y-100.0
X68.66Y-52.0
X91.73Y-93.62
X91.73Y-98.5
T4
X73.0Y-63.5
X73.14Y-45.5
X73.14Y-54.5
X73.14Y-72.5
X78.0Y-63.5
X78.14Y-45.5
X78.14Y-54.5
X78.14Y-72.5
T5
X58.34Y-46.0
X68.5Y-46.0
X83.89Y-45.5
X83.89Y-50.5
X86.43Y-45.5
X86.43Y-50.5
X88.97Y-45.5
X88.97Y-50.5
X91.51Y-45.5
X91.51Y-50.5
X94.05Y-45.5
X94.05Y-50.5
X96.59Y-45.5
X96.59Y-50.5
M30
