%TF.GenerationSoftware,KiCad,Pcbnew,9.0.2*%
%TF.CreationDate,2025-06-01T20:36:06+02:00*%
%TF.ProjectId,IBIS,49424953-2e6b-4696-9361-645f70636258,rev?*%
%TF.SameCoordinates,Original*%
%TF.FileFunction,Copper,L2,Bot*%
%TF.FilePolarity,Positive*%
%FSLAX46Y46*%
G04 Gerber Fmt 4.6, Leading zero omitted, Abs format (unit mm)*
G04 Created by KiCad (PCBNEW 9.0.2) date 2025-06-01 20:36:06*
%MOMM*%
%LPD*%
G01*
G04 APERTURE LIST*
G04 Aperture macros list*
%AMRoundRect*
0 Rectangle with rounded corners*
0 $1 Rounding radius*
0 $2 $3 $4 $5 $6 $7 $8 $9 X,Y pos of 4 corners*
0 Add a 4 corners polygon primitive as box body*
4,1,4,$2,$3,$4,$5,$6,$7,$8,$9,$2,$3,0*
0 Add four circle primitives for the rounded corners*
1,1,$1+$1,$2,$3*
1,1,$1+$1,$4,$5*
1,1,$1+$1,$6,$7*
1,1,$1+$1,$8,$9*
0 Add four rect primitives between the rounded corners*
20,1,$1+$1,$2,$3,$4,$5,0*
20,1,$1+$1,$4,$5,$6,$7,0*
20,1,$1+$1,$6,$7,$8,$9,0*
20,1,$1+$1,$8,$9,$2,$3,0*%
G04 Aperture macros list end*
%TA.AperFunction,ComponentPad*%
%ADD10R,1.050000X1.500000*%
%TD*%
%TA.AperFunction,ComponentPad*%
%ADD11O,1.050000X1.500000*%
%TD*%
%TA.AperFunction,ComponentPad*%
%ADD12C,1.600000*%
%TD*%
%TA.AperFunction,ComponentPad*%
%ADD13C,2.000000*%
%TD*%
%TA.AperFunction,ComponentPad*%
%ADD14RoundRect,0.250000X-0.550000X0.550000X-0.550000X-0.550000X0.550000X-0.550000X0.550000X0.550000X0*%
%TD*%
%TA.AperFunction,ComponentPad*%
%ADD15RoundRect,0.250000X-0.650000X-1.350000X0.650000X-1.350000X0.650000X1.350000X-0.650000X1.350000X0*%
%TD*%
%TA.AperFunction,ComponentPad*%
%ADD16O,1.800000X3.200000*%
%TD*%
%TA.AperFunction,ComponentPad*%
%ADD17RoundRect,0.250000X-0.550000X-0.550000X0.550000X-0.550000X0.550000X0.550000X-0.550000X0.550000X0*%
%TD*%
%TA.AperFunction,ComponentPad*%
%ADD18C,1.500000*%
%TD*%
%TA.AperFunction,ComponentPad*%
%ADD19RoundRect,0.249999X-0.850001X-0.850001X0.850001X-0.850001X0.850001X0.850001X-0.850001X0.850001X0*%
%TD*%
%TA.AperFunction,ComponentPad*%
%ADD20C,2.200000*%
%TD*%
%TA.AperFunction,ViaPad*%
%ADD21C,0.600000*%
%TD*%
%TA.AperFunction,Conductor*%
%ADD22C,0.200000*%
%TD*%
G04 APERTURE END LIST*
D10*
%TO.P,T2,1,C*%
%TO.N,Net-(T2-C)*%
X90460000Y-85000000D03*
D11*
%TO.P,T2,2,B*%
%TO.N,Net-(D2-A)*%
X91730000Y-85000000D03*
%TO.P,T2,3,E*%
%TO.N,Net-(D2-K)*%
X93000000Y-85000000D03*
%TD*%
D12*
%TO.P,R1,1*%
%TO.N,Net-(U1-TXD)*%
X54000000Y-82660000D03*
%TO.P,R1,2*%
%TO.N,Net-(T0-B)*%
X54000000Y-72500000D03*
%TD*%
D13*
%TO.P,C3,1*%
%TO.N,Net-(U1-V3)*%
X73000000Y-63500000D03*
%TO.P,C3,2*%
%TO.N,GND*%
X78000000Y-63500000D03*
%TD*%
%TO.P,C2,1*%
%TO.N,Net-(U1-XO)*%
X73140000Y-54500000D03*
%TO.P,C2,2*%
%TO.N,GND*%
X78140000Y-54500000D03*
%TD*%
D12*
%TO.P,R4,1*%
%TO.N,GND*%
X58340000Y-64000000D03*
%TO.P,R4,2*%
%TO.N,Net-(D1-K)*%
X68500000Y-64000000D03*
%TD*%
D13*
%TO.P,C4,1*%
%TO.N,VCC*%
X73140000Y-72500000D03*
%TO.P,C4,2*%
%TO.N,GND*%
X78140000Y-72500000D03*
%TD*%
D12*
%TO.P,R8,1*%
%TO.N,Net-(D2-A)*%
X58340000Y-88000000D03*
%TO.P,R8,2*%
%TO.N,Net-(J2-Pin_2)*%
X68500000Y-88000000D03*
%TD*%
%TO.P,R3,1*%
%TO.N,/DTR*%
X58340000Y-58000000D03*
%TO.P,R3,2*%
%TO.N,Net-(R3-Pad2)*%
X68500000Y-58000000D03*
%TD*%
D10*
%TO.P,T0,1,C*%
%TO.N,GND*%
X82460000Y-73000000D03*
D11*
%TO.P,T0,2,B*%
%TO.N,Net-(T0-B)*%
X83730000Y-73000000D03*
%TO.P,T0,3,E*%
%TO.N,Net-(J2-Pin_5)*%
X85000000Y-73000000D03*
%TD*%
D14*
%TO.P,D1,1,K*%
%TO.N,Net-(D1-K)*%
X54000000Y-85340000D03*
D12*
%TO.P,D1,2,A*%
%TO.N,GND*%
X54000000Y-95500000D03*
%TD*%
%TO.P,R5,1*%
%TO.N,Net-(J2-Pin_5)*%
X58340000Y-70000000D03*
%TO.P,R5,2*%
%TO.N,Net-(J2-Pin_1)*%
X68500000Y-70000000D03*
%TD*%
D15*
%TO.P,J2,1,Pin_1*%
%TO.N,Net-(J2-Pin_1)*%
X83890000Y-45500000D03*
X83890000Y-50500000D03*
D16*
%TO.P,J2,2,Pin_2*%
%TO.N,Net-(J2-Pin_2)*%
X86430000Y-45500000D03*
X86430000Y-50500000D03*
%TO.P,J2,3,Pin_3*%
%TO.N,GND*%
X88970000Y-45500000D03*
X88970000Y-50500000D03*
%TO.P,J2,4,Pin_4*%
X91510000Y-45500000D03*
X91510000Y-50500000D03*
%TO.P,J2,5,Pin_5*%
%TO.N,Net-(J2-Pin_5)*%
X94050000Y-45500000D03*
X94050000Y-50500000D03*
%TO.P,J2,6,Pin_6*%
%TO.N,GND*%
X96590000Y-45500000D03*
X96590000Y-50500000D03*
%TD*%
D17*
%TO.P,D2,1,K*%
%TO.N,Net-(D2-K)*%
X58500000Y-52000000D03*
D12*
%TO.P,D2,2,A*%
%TO.N,Net-(D2-A)*%
X68660000Y-52000000D03*
%TD*%
D18*
%TO.P,X1,1,1*%
%TO.N,Net-(U1-XI)*%
X91730000Y-98500000D03*
%TO.P,X1,2,2*%
%TO.N,Net-(U1-XO)*%
X91730000Y-93620000D03*
%TD*%
D12*
%TO.P,R6,1*%
%TO.N,Net-(R3-Pad2)*%
X58340000Y-76000000D03*
%TO.P,R6,2*%
%TO.N,Net-(T2-C)*%
X68500000Y-76000000D03*
%TD*%
D19*
%TO.P,D3,1,K*%
%TO.N,Net-(D2-K)*%
X58340000Y-46000000D03*
D20*
%TO.P,D3,2,A*%
%TO.N,GND*%
X68500000Y-46000000D03*
%TD*%
D10*
%TO.P,T1,1,C*%
%TO.N,GND*%
X90460000Y-76500000D03*
D11*
%TO.P,T1,2,B*%
%TO.N,Net-(D1-K)*%
X91730000Y-76500000D03*
%TO.P,T1,3,E*%
%TO.N,Net-(J2-Pin_1)*%
X93000000Y-76500000D03*
%TD*%
D12*
%TO.P,R9,1*%
%TO.N,Net-(D2-K)*%
X58340000Y-94000000D03*
%TO.P,R9,2*%
%TO.N,Net-(J2-Pin_5)*%
X68500000Y-94000000D03*
%TD*%
%TO.P,R7,1*%
%TO.N,Net-(D2-A)*%
X58340000Y-82000000D03*
%TO.P,R7,2*%
%TO.N,Net-(D2-K)*%
X68500000Y-82000000D03*
%TD*%
D13*
%TO.P,C1,1*%
%TO.N,Net-(U1-XI)*%
X73140000Y-45500000D03*
%TO.P,C1,2*%
%TO.N,GND*%
X78140000Y-45500000D03*
%TD*%
D12*
%TO.P,R2,1*%
%TO.N,/RXD*%
X54000000Y-69160000D03*
%TO.P,R2,2*%
%TO.N,Net-(T2-C)*%
X54000000Y-59000000D03*
%TD*%
%TO.P,R10,1*%
%TO.N,Net-(J2-Pin_2)*%
X58340000Y-100000000D03*
%TO.P,R10,2*%
%TO.N,Net-(J2-Pin_5)*%
X68500000Y-100000000D03*
%TD*%
D21*
%TO.N,Net-(D2-K)*%
X70201000Y-76000000D03*
X69500000Y-73000000D03*
X70201000Y-78500000D03*
X65977510Y-65673960D03*
X65000000Y-64000000D03*
X89570000Y-80199997D03*
%TO.N,Net-(D1-K)*%
X89570000Y-72000000D03*
X61344265Y-66155735D03*
X59500000Y-66500000D03*
%TO.N,Net-(J2-Pin_1)*%
X91000000Y-53000000D03*
%TO.N,Net-(T2-C)*%
X68500000Y-78500000D03*
X89570000Y-82000000D03*
X58000000Y-67100000D03*
%TO.N,Net-(D2-A)*%
X70900000Y-75500000D03*
X70201000Y-80000000D03*
X89570000Y-81000000D03*
%TO.N,Net-(J1-D+)*%
X78000000Y-99000000D03*
X78500000Y-86000000D03*
%TO.N,VCC*%
X72500000Y-99500000D03*
X73500000Y-77500000D03*
%TO.N,Net-(U1-XI)*%
X81000000Y-86000000D03*
X87000000Y-94000000D03*
%TO.N,Net-(U1-XO)*%
X82304000Y-82500000D03*
X90500000Y-90000000D03*
%TO.N,Net-(U1-TXD)*%
X71900000Y-90500000D03*
X74338235Y-89161765D03*
X74600000Y-86500000D03*
X69000000Y-85500000D03*
X70600000Y-85500000D03*
%TO.N,Net-(U1-V3)*%
X76500000Y-72000000D03*
X76500000Y-75000000D03*
X75500000Y-65000000D03*
X76674265Y-65674265D03*
%TO.N,Net-(J1-D-)*%
X79500000Y-87500000D03*
X77500000Y-100000000D03*
%TO.N,Net-(J2-Pin_2)*%
X78500000Y-82500000D03*
X85000000Y-77000000D03*
X83504000Y-78000000D03*
X79000000Y-80900000D03*
X73500000Y-88500000D03*
X86500000Y-77500000D03*
%TO.N,Net-(J2-Pin_5)*%
X67500000Y-91500000D03*
X68500000Y-97500000D03*
X55863080Y-85363080D03*
%TO.N,/RXD*%
X57500000Y-72000000D03*
X76000000Y-86500000D03*
X66500000Y-85100000D03*
X67674265Y-89674265D03*
X73100000Y-91500000D03*
%TO.N,/DTR*%
X74547870Y-71982401D03*
X72500000Y-69000000D03*
X76000000Y-73500000D03*
X70000000Y-66500000D03*
%TO.N,Net-(R3-Pad2)*%
X57500000Y-73000000D03*
%TD*%
D22*
%TO.N,Net-(D2-K)*%
X73899000Y-74899000D02*
X70601000Y-74899000D01*
X58340000Y-94000000D02*
X65849943Y-94000000D01*
X89570000Y-80199997D02*
X87267097Y-80199997D01*
X71000000Y-81000000D02*
X70000000Y-82000000D01*
X58500000Y-52000000D02*
X65000000Y-58500000D01*
X65977510Y-65673960D02*
X65977510Y-69877510D01*
X83567100Y-76500000D02*
X75500000Y-76500000D01*
X71000000Y-79299000D02*
X71000000Y-81000000D01*
X87267097Y-80199997D02*
X83567100Y-76500000D01*
X70000000Y-75500000D02*
X70000000Y-76000000D01*
X70000000Y-89849943D02*
X70000000Y-83500000D01*
X70000000Y-76000000D02*
X70201000Y-76000000D01*
X65849943Y-94000000D02*
X70000000Y-89849943D01*
X70601000Y-74899000D02*
X70000000Y-75500000D01*
X70000000Y-83500000D02*
X68500000Y-82000000D01*
X69100000Y-73000000D02*
X69500000Y-73000000D01*
X70000000Y-82000000D02*
X68500000Y-82000000D01*
X65000000Y-58500000D02*
X65000000Y-64000000D01*
X70201000Y-78500000D02*
X71000000Y-79299000D01*
X65977510Y-69877510D02*
X69100000Y-73000000D01*
X75500000Y-76500000D02*
X73899000Y-74899000D01*
%TO.N,Net-(D1-K)*%
X61344265Y-66155735D02*
X59844265Y-66155735D01*
X89570000Y-72000000D02*
X86070000Y-68500000D01*
X73000000Y-68500000D02*
X68500000Y-64000000D01*
X59844265Y-66155735D02*
X59500000Y-66500000D01*
X86070000Y-68500000D02*
X73000000Y-68500000D01*
%TO.N,Net-(J2-Pin_1)*%
X86000000Y-53000000D02*
X73273500Y-65726500D01*
X86390000Y-53000000D02*
X83890000Y-50500000D01*
X68956050Y-62899000D02*
X68043950Y-62899000D01*
X86500000Y-53000000D02*
X86390000Y-53000000D01*
X91000000Y-53000000D02*
X86500000Y-53000000D01*
X68043950Y-62899000D02*
X67399000Y-63543950D01*
X67399000Y-68899000D02*
X68500000Y-70000000D01*
X86500000Y-53000000D02*
X86000000Y-53000000D01*
X67399000Y-63543950D02*
X67399000Y-68899000D01*
X73273500Y-65726500D02*
X71783550Y-65726500D01*
X71783550Y-65726500D02*
X68956050Y-62899000D01*
%TO.N,Net-(T2-C)*%
X89570000Y-82000000D02*
X89070000Y-81500000D01*
X74101000Y-77251057D02*
X74101000Y-81399000D01*
X58000000Y-67100000D02*
X54000000Y-63100000D01*
X70101000Y-76899000D02*
X73748943Y-76899000D01*
X68500000Y-78500000D02*
X70101000Y-76899000D01*
X74101000Y-81399000D02*
X74000000Y-81500000D01*
X89070000Y-81500000D02*
X74000000Y-81500000D01*
X54000000Y-63100000D02*
X54000000Y-59000000D01*
X73748943Y-76899000D02*
X74101000Y-77251057D01*
%TO.N,Net-(D2-A)*%
X70201000Y-80000000D02*
X60340000Y-80000000D01*
X87500000Y-81000000D02*
X83500000Y-77000000D01*
X89570000Y-81000000D02*
X87500000Y-81000000D01*
X60340000Y-80000000D02*
X58340000Y-82000000D01*
X75000000Y-77000000D02*
X73500000Y-75500000D01*
X73500000Y-75500000D02*
X70900000Y-75500000D01*
X83500000Y-77000000D02*
X75000000Y-77000000D01*
%TO.N,Net-(J1-D+)*%
X79000000Y-86500000D02*
X79500000Y-86500000D01*
X80500000Y-87500000D02*
X80500000Y-90000000D01*
X78500000Y-86000000D02*
X79000000Y-86500000D01*
X80500000Y-90000000D02*
X78000000Y-92500000D01*
X79500000Y-86500000D02*
X80500000Y-87500000D01*
X78000000Y-92500000D02*
X78000000Y-99000000D01*
%TO.N,VCC*%
X73500000Y-77500000D02*
X72500000Y-77500000D01*
X72500000Y-99500000D02*
X72500000Y-77500000D01*
%TO.N,Net-(U1-XI)*%
X81000000Y-88000000D02*
X87000000Y-94000000D01*
X81000000Y-86000000D02*
X81000000Y-88000000D01*
%TO.N,Net-(T0-B)*%
X83730000Y-73950000D02*
X83730000Y-73000000D01*
X76650057Y-76000000D02*
X81680000Y-76000000D01*
X74451057Y-73801000D02*
X76650057Y-76000000D01*
X54000000Y-72500000D02*
X55301000Y-73801000D01*
X81680000Y-76000000D02*
X83730000Y-73950000D01*
X55301000Y-73801000D02*
X74451057Y-73801000D01*
%TO.N,Net-(U1-XO)*%
X73140000Y-55914213D02*
X73140000Y-54500000D01*
X90500000Y-90000000D02*
X83000000Y-82500000D01*
X68043950Y-71101000D02*
X66998000Y-70055050D01*
X66998000Y-70055050D02*
X66998000Y-62056213D01*
X83000000Y-82500000D02*
X82500000Y-82500000D01*
X90171000Y-79951054D02*
X89321057Y-79101111D01*
X89321057Y-79101111D02*
X89321057Y-73098886D01*
X89818943Y-82601000D02*
X90171000Y-82248943D01*
X89321057Y-73098886D02*
X87323171Y-71101000D01*
X82405000Y-82601000D02*
X89818943Y-82601000D01*
X66998000Y-62056213D02*
X73140000Y-55914213D01*
X90171000Y-82248943D02*
X90171000Y-79951054D01*
X82304000Y-82500000D02*
X82405000Y-82601000D01*
X87323171Y-71101000D02*
X68043950Y-71101000D01*
%TO.N,Net-(U1-TXD)*%
X71900000Y-86800000D02*
X71900000Y-90500000D01*
X61500000Y-84500000D02*
X68000000Y-84500000D01*
X68000000Y-84500000D02*
X69000000Y-85500000D01*
X70600000Y-85500000D02*
X71900000Y-86800000D01*
X54000000Y-82660000D02*
X55840000Y-84500000D01*
X74600000Y-88900000D02*
X74600000Y-86500000D01*
X55840000Y-84500000D02*
X61500000Y-84500000D01*
X74338235Y-89161765D02*
X74600000Y-88900000D01*
%TO.N,Net-(U1-V3)*%
X76601000Y-72101000D02*
X76500000Y-72000000D01*
X76674265Y-65674265D02*
X76174265Y-65674265D01*
X76601000Y-74899000D02*
X76601000Y-72101000D01*
X76500000Y-75000000D02*
X76601000Y-74899000D01*
X76174265Y-65674265D02*
X75500000Y-65000000D01*
%TO.N,Net-(J1-D-)*%
X75000000Y-92000000D02*
X75000000Y-99307785D01*
X75000000Y-99307785D02*
X75692215Y-100000000D01*
X75692215Y-100000000D02*
X77500000Y-100000000D01*
X79500000Y-87500000D02*
X75000000Y-92000000D01*
%TO.N,Net-(J2-Pin_2)*%
X86500000Y-77500000D02*
X85500000Y-77500000D01*
X80504000Y-81000000D02*
X80404000Y-80900000D01*
X78500000Y-82500000D02*
X74000000Y-82500000D01*
X80404000Y-80900000D02*
X79000000Y-80900000D01*
X83504000Y-78000000D02*
X80504000Y-81000000D01*
X74000000Y-82500000D02*
X74000000Y-88000000D01*
X85500000Y-77500000D02*
X85000000Y-77000000D01*
X74000000Y-88000000D02*
X73500000Y-88500000D01*
%TO.N,Net-(J2-Pin_5)*%
X94050000Y-45500000D02*
X94050000Y-50500000D01*
X56000000Y-87000000D02*
X55863080Y-86863080D01*
X68500000Y-97500000D02*
X68500000Y-94000000D01*
X67500000Y-91500000D02*
X67000000Y-91000000D01*
X59500000Y-91000000D02*
X56000000Y-87500000D01*
X67000000Y-91000000D02*
X59500000Y-91000000D01*
X55863080Y-86863080D02*
X55863080Y-85363080D01*
X56000000Y-87500000D02*
X56000000Y-87000000D01*
%TO.N,/RXD*%
X76000000Y-88600000D02*
X73100000Y-91500000D01*
X66500000Y-88500000D02*
X66500000Y-85100000D01*
X56840000Y-72000000D02*
X54000000Y-69160000D01*
X57500000Y-72000000D02*
X56840000Y-72000000D01*
X76000000Y-86500000D02*
X76000000Y-88600000D01*
X67674265Y-89674265D02*
X66500000Y-88500000D01*
%TO.N,/DTR*%
X74547870Y-72047870D02*
X74547870Y-71982401D01*
X72500000Y-69000000D02*
X70000000Y-66500000D01*
X76000000Y-73500000D02*
X74547870Y-72047870D01*
%TO.N,Net-(R3-Pad2)*%
X66597000Y-63903000D02*
X66597000Y-59903000D01*
X57500000Y-73000000D02*
X66597000Y-63903000D01*
X66597000Y-59903000D02*
X68500000Y-58000000D01*
%TD*%
M02*
